<?xml version="1.0" standalone="no"?>
<!DOCTYPE svg PUBLIC "-//W3C//DTD SVG 20010904//EN"
 "http://www.w3.org/TR/2001/REC-SVG-20010904/DTD/svg10.dtd">
<svg version="1.0" xmlns="http://www.w3.org/2000/svg"
 width="658" height="658" viewBox="0 0 658 658"
 preserveAspectRatio="xMidYMid meet">
<metadata>
Created by potrace 1.16, written by Peter Selinger 2001-2019
</metadata>
<g transform="translate(0.000000,658.000000) scale(0.100000,-0.100000)"
fill="#5BBFE8" stroke="none">
<path d="M3952 6270 c-25 -16 -35 -32 -52 -92 -12 -40 -28 -98 -37 -128 -27
-93 -107 -250 -174 -344 -76 -105 -252 -287 -399 -411 -215 -181 -295 -270
-356 -398 -61 -130 -67 -293 -14 -427 11 -28 45 -123 75 -213 92 -272 126
-350 143 -332 23 23 54 160 77 339 30 236 59 342 122 452 101 179 213 286 513
487 107 72 205 142 218 156 36 38 80 137 97 217 21 98 19 270 -4 375 -36 162
-102 298 -160 329 -13 6 -27 3 -49 -10z"/>
<path d="M4926 6089 c-15 -12 -48 -62 -73 -112 -155 -309 -403 -558 -813 -817
-238 -150 -332 -220 -440 -329 -166 -167 -204 -255 -245 -566 -14 -110 -32
-226 -40 -258 -15 -59 -19 -97 -10 -97 2 0 39 23 82 51 43 28 159 91 259 139
198 95 181 80 286 245 73 114 175 212 270 260 42 22 80 37 83 33 4 -4 -8 -26
-27 -50 -61 -76 -133 -190 -199 -317 -96 -186 -108 -197 -409 -357 -140 -75
-273 -150 -295 -167 -22 -17 -96 -85 -165 -152 -123 -118 -221 -185 -269 -185
-31 0 -26 12 28 77 70 84 131 182 131 211 0 13 -16 51 -35 83 -59 97 -110 214
-180 419 -139 406 -225 569 -389 739 -123 127 -223 189 -396 245 l-95 31 -36
76 c-49 100 -139 198 -221 239 -74 36 -101 38 -133 6 -31 -31 -38 -87 -26
-211 9 -94 8 -101 -11 -117 -12 -11 -37 -18 -63 -18 -51 0 -28 -16 -435 309
-333 267 -393 310 -452 332 -92 32 -124 -30 -70 -138 34 -66 75 -121 376 -507
190 -244 217 -282 211 -305 -8 -32 -71 -116 -283 -381 -179 -222 -220 -292
-229 -388 -12 -136 72 -284 194 -342 57 -27 157 -40 219 -29 27 5 78 25 114
44 191 104 198 106 342 116 73 5 156 14 183 20 138 32 253 117 327 241 22 38
44 68 48 68 21 0 32 -33 27 -80 -16 -132 -126 -270 -272 -340 -90 -44 -94 -51
-95 -155 0 -22 -18 -152 -40 -290 -44 -275 -48 -368 -25 -514 47 -290 198
-515 460 -684 118 -76 126 -84 160 -161 71 -160 118 -432 119 -676 0 -186 -9
-266 -50 -450 -29 -132 -25 -166 26 -215 28 -26 39 -30 107 -33 112 -6 184 18
250 84 78 77 89 122 128 519 33 330 67 621 77 670 12 56 30 96 51 113 8 7 79
19 158 28 79 8 188 24 243 35 100 20 320 89 410 128 l48 21 -7 43 c-28 172
-28 232 2 315 22 62 36 42 67 -94 14 -62 39 -149 57 -195 68 -180 219 -361
414 -498 213 -151 281 -256 306 -470 14 -112 0 -299 -31 -429 -25 -105 -25
-158 0 -199 31 -52 72 -68 171 -67 78 0 94 4 155 35 65 32 71 38 104 103 l35
69 3 459 c4 523 4 523 -74 629 -26 35 -63 97 -82 138 -31 63 -37 88 -40 161
-4 75 1 104 34 235 38 148 39 153 38 330 0 154 -3 192 -22 260 -58 209 -185
374 -378 490 -32 19 -60 35 -64 35 -3 0 -44 -25 -90 -56 -131 -85 -268 -148
-460 -209 -96 -31 -222 -75 -278 -97 -57 -22 -106 -37 -109 -34 -9 9 55 82
110 124 63 49 173 107 277 146 127 49 353 166 443 230 258 184 662 564 789
742 107 150 190 327 235 499 34 130 39 349 10 403 -29 54 -82 40 -118 -31 -86
-169 -295 -412 -464 -540 -97 -73 -146 -96 -203 -97 -80 0 -72 37 38 180 44
58 108 141 141 185 184 243 271 474 272 720 0 129 -14 216 -45 281 -39 84 -80
104 -132 63z m-3366 -1371 c58 -39 63 -117 13 -170 -79 -83 -224 22 -172 125
18 36 62 67 95 67 17 0 46 -10 64 -22z"/>
<path d="M1816 2111 c74 -312 103 -663 74 -897 -6 -49 -29 -167 -51 -262 -28
-119 -39 -184 -35 -207 10 -49 50 -93 99 -106 49 -13 154 -6 212 14 l40 14 6
84 c4 46 13 111 22 144 50 190 65 469 38 665 -18 122 -68 326 -95 386 -21 46
-36 60 -118 115 -51 34 -116 82 -144 106 -28 24 -56 43 -61 43 -6 0 0 -42 13
-99z"/>
<path d="M3775 2055 c-49 -19 -120 -44 -157 -56 -38 -12 -68 -24 -68 -28 1
-28 78 -130 153 -201 194 -182 212 -202 226 -253 9 -31 12 -77 9 -135 -5 -74
-18 -125 -86 -332 -44 -135 -83 -257 -86 -272 -9 -39 15 -91 55 -119 31 -22
44 -24 134 -23 81 0 109 4 150 23 98 44 137 99 185 261 27 88 129 490 145 567
12 61 -16 93 -210 237 -111 82 -239 210 -300 300 -22 33 -44 61 -50 62 -5 2
-50 -12 -100 -31z"/>
</g>
</svg>